<svg width="338" height="151" viewBox="0 0 338 151" fill="none" xmlns="http://www.w3.org/2000/svg">
<path d="M90.75 124.041C104.694 124.041 117.767 118.687 127.602 108.852C137.438 99.0165 142.791 85.944 142.791 72C142.791 58.056 137.438 44.9835 127.602 35.148C117.767 25.3125 104.694 19.959 90.75 19.959C76.806 19.959 63.7335 25.3125 53.898 35.148C44.0625 44.9835 38.709 58.056 38.709 72C38.709 85.944 44.0625 99.0165 53.898 108.852C63.7335 118.687 76.806 124.041 90.75 124.041ZM93.738 115.202C92.742 115.326 91.746 115.326 90.75 115.326C89.3805 115.326 88.011 115.201 86.6415 115.077C82.1595 108.105 78.798 100.635 76.806 92.7915H98.8425C99.5895 94.659 100.959 96.402 102.578 97.5225C100.461 103.747 97.473 109.599 93.738 115.202V115.202ZM105.565 112.712C107.931 108.354 109.799 103.996 111.293 99.39C114.903 98.643 117.767 96.153 119.136 92.7915H128.723C123.743 101.88 115.401 108.977 105.565 112.712ZM133.952 72C133.952 76.1085 133.329 80.0925 132.333 83.952H118.887C118.14 82.3335 116.895 80.8395 115.401 79.719C115.65 76.98 115.775 74.241 115.775 71.502C115.775 67.6425 115.526 63.783 115.028 60.048H132.209C133.454 63.783 133.952 67.8915 133.952 72V72ZM128.723 51.2085H113.534C111.915 44.361 109.55 37.887 106.313 31.662C115.775 35.2725 123.743 42.369 128.723 51.2085ZM107.06 71.502C107.06 73.6185 106.935 75.735 106.81 77.8515C103.324 78.5985 100.461 80.8395 99.0915 83.952H75.063C74.565 80.217 74.1915 76.3575 74.1915 72.6225C74.1915 70.257 74.316 67.8915 74.565 65.526C77.802 64.9035 80.4165 62.787 82.035 60.048H106.313C106.811 63.783 107.06 67.6425 107.06 71.502V71.502ZM87.513 28.923C88.6335 28.7985 89.754 28.7985 90.75 28.7985C91.995 28.7985 93.24 28.7985 94.485 28.923C98.967 35.895 102.328 43.365 104.32 51.2085H82.6575C81.9105 49.092 80.541 47.2245 78.798 45.855C81.039 39.879 83.9025 34.2765 87.513 28.923ZM75.6855 31.413C73.569 35.397 71.7015 39.63 70.2075 43.863C66.348 44.61 63.2355 47.4735 61.9905 51.084H52.902C57.7575 42.2445 65.85 35.148 75.6855 31.413ZM47.5485 72C47.5485 67.8915 48.171 63.783 49.2915 60.048H62.862C63.609 61.4175 64.7295 62.6625 65.9745 63.6585C65.7255 66.6465 65.4765 69.6345 65.4765 72.6225C65.4765 76.482 65.7255 80.217 66.2235 83.952H49.2915C48.0465 80.0925 47.5485 76.1085 47.5485 72ZM67.7175 92.667C69.336 99.39 71.7015 105.988 74.9385 112.213C65.4765 108.478 57.633 101.506 52.7775 92.667H67.7175Z" fill="#60A5FA"/>
<path d="M12.5598 111C11.2798 111 10.3518 110.712 9.77575 110.136C9.26375 109.56 9.00775 108.696 9.00775 107.544V49.272C9.00775 48.056 9.26375 47.16 9.77575 46.584C10.3518 46.008 11.2798 45.72 12.5598 45.72H52.4958C53.7758 45.72 54.6398 45.976 55.0878 46.488C55.5998 47 55.8558 47.864 55.8558 49.08V51.672C55.8558 52.888 55.5998 53.784 55.0878 54.36C54.6398 54.872 53.7758 55.128 52.4958 55.128H21.2958V73.656H43.9518C45.2318 73.656 46.1278 73.912 46.6398 74.424C47.1518 74.936 47.4078 75.8 47.4078 77.016V79.608C47.4078 80.824 47.1518 81.72 46.6398 82.296C46.1278 82.808 45.2318 83.064 43.9518 83.064H21.2958V107.544C21.2958 108.696 21.0078 109.56 20.4318 110.136C19.9198 110.712 18.9918 111 17.6478 111H12.5598ZM140.06 111C138.78 111 137.852 110.712 137.276 110.136C136.764 109.56 136.508 108.696 136.508 107.544V49.272C136.508 48.056 136.764 47.16 137.276 46.584C137.852 46.008 138.78 45.72 140.06 45.72H165.116C172.54 45.72 178.172 47.448 182.012 50.904C185.916 54.36 187.868 59.48 187.868 66.264C187.868 70.744 186.812 74.584 184.7 77.784C182.588 80.92 179.516 83.288 175.484 84.888L186.14 108.504C186.332 108.888 186.428 109.24 186.428 109.56C186.428 110.52 185.852 111 184.7 111H176.828C175.996 111 175.388 110.904 175.004 110.712C174.62 110.456 174.268 109.976 173.948 109.272L164.252 86.52H148.796V107.544C148.796 108.696 148.508 109.56 147.932 110.136C147.42 110.712 146.492 111 145.148 111H140.06ZM162.62 77.304C167.1 77.304 170.396 76.44 172.508 74.712C174.62 72.984 175.676 70.168 175.676 66.264C175.676 62.424 174.716 59.608 172.796 57.816C170.876 56.024 167.964 55.128 164.06 55.128H148.796V77.304H162.62ZM225.962 112.44C220.202 112.44 215.114 111.48 210.698 109.56C206.282 107.576 202.858 104.728 200.426 101.016C197.994 97.304 196.778 92.952 196.778 87.96V49.272C196.778 48.056 197.034 47.16 197.546 46.584C198.122 46.008 199.05 45.72 200.33 45.72H205.418C206.698 45.72 207.626 46.008 208.202 46.584C208.778 47.16 209.066 48.056 209.066 49.272V88.248C209.066 93.24 210.506 97.016 213.386 99.576C216.33 102.136 220.522 103.416 225.962 103.416C231.338 103.416 235.466 102.136 238.346 99.576C241.29 97.016 242.762 93.24 242.762 88.248V49.272C242.762 48.056 243.05 47.16 243.626 46.584C244.202 46.008 245.13 45.72 246.41 45.72H251.402C253.898 45.72 255.146 46.904 255.146 49.272V87.96C255.146 92.952 253.898 97.304 251.402 101.016C248.97 104.664 245.546 107.48 241.13 109.464C236.714 111.448 231.658 112.44 225.962 112.44ZM269.529 111C268.249 111 267.321 110.712 266.745 110.136C266.233 109.56 265.977 108.696 265.977 107.544V49.272C265.977 48.056 266.233 47.16 266.745 46.584C267.321 46.008 268.281 45.72 269.625 45.72H274.809C275.833 45.72 276.601 45.848 277.113 46.104C277.689 46.36 278.137 46.872 278.457 47.64L297.849 92.28L317.241 47.64C317.561 46.872 317.977 46.36 318.489 46.104C319.065 45.848 319.865 45.72 320.889 45.72H326.073C327.417 45.72 328.345 46.008 328.857 46.584C329.433 47.16 329.721 48.056 329.721 49.272V107.544C329.721 108.696 329.433 109.56 328.857 110.136C328.345 110.712 327.449 111 326.169 111H321.945C320.665 111 319.737 110.712 319.161 110.136C318.585 109.56 318.297 108.696 318.297 107.544V66.168L301.881 102.744C301.369 103.768 300.857 104.504 300.345 104.952C299.833 105.4 299.001 105.624 297.849 105.624C296.697 105.624 295.833 105.4 295.257 104.952C294.745 104.504 294.265 103.768 293.817 102.744L277.401 66.168V107.544C277.401 108.696 277.113 109.56 276.537 110.136C276.025 110.712 275.097 111 273.753 111H269.529Z" fill="#5E5E5E"/>
</svg>
