<svg width="332" height="118" viewBox="0 0 332 118" fill="none" xmlns="http://www.w3.org/2000/svg">
<path d="M9.966 111.75C8.686 111.75 7.758 111.462 7.182 110.886C6.67 110.31 6.414 109.446 6.414 108.294V50.022C6.414 48.806 6.67 47.91 7.182 47.334C7.758 46.758 8.686 46.47 9.966 46.47H49.902C51.182 46.47 52.046 46.726 52.494 47.238C53.006 47.75 53.262 48.614 53.262 49.83V52.422C53.262 53.638 53.006 54.534 52.494 55.11C52.046 55.622 51.182 55.878 49.902 55.878H18.702V74.406H41.358C42.638 74.406 43.534 74.662 44.046 75.174C44.558 75.686 44.814 76.55 44.814 77.766V80.358C44.814 81.574 44.558 82.47 44.046 83.046C43.534 83.558 42.638 83.814 41.358 83.814H18.702V108.294C18.702 109.446 18.414 110.31 17.838 110.886C17.326 111.462 16.398 111.75 15.054 111.75H9.966ZM87.3885 113.19C76.8285 113.19 68.7005 110.214 63.0045 104.262C57.3725 98.31 54.5565 89.926 54.5565 79.11C54.5565 68.294 57.3725 59.91 63.0045 53.958C68.7005 48.006 76.8285 45.03 87.3885 45.03C97.8845 45.03 105.981 48.006 111.677 53.958C117.373 59.91 120.221 68.294 120.221 79.11C120.221 89.926 117.373 98.31 111.677 104.262C105.981 110.214 97.8845 113.19 87.3885 113.19ZM87.3885 104.166C94.1085 104.166 99.2285 102.054 102.749 97.83C106.269 93.542 108.029 87.302 108.029 79.11C108.029 70.918 106.269 64.71 102.749 60.486C99.2285 56.262 94.1085 54.15 87.3885 54.15C80.6685 54.15 75.5165 56.262 71.9325 60.486C68.4125 64.71 66.6525 70.918 66.6525 79.11C66.6525 87.302 68.4125 93.542 71.9325 97.83C75.5165 102.054 80.6685 104.166 87.3885 104.166ZM133.154 111.75C131.874 111.75 130.946 111.462 130.37 110.886C129.858 110.31 129.602 109.446 129.602 108.294V50.022C129.602 48.806 129.858 47.91 130.37 47.334C130.946 46.758 131.874 46.47 133.154 46.47H158.21C165.634 46.47 171.266 48.198 175.106 51.654C179.01 55.11 180.962 60.23 180.962 67.014C180.962 71.494 179.906 75.334 177.794 78.534C175.682 81.67 172.61 84.038 168.578 85.638L179.234 109.254C179.426 109.638 179.522 109.99 179.522 110.31C179.522 111.27 178.946 111.75 177.794 111.75H169.922C169.09 111.75 168.482 111.654 168.098 111.462C167.714 111.206 167.362 110.726 167.042 110.022L157.346 87.27H141.89V108.294C141.89 109.446 141.602 110.31 141.026 110.886C140.514 111.462 139.586 111.75 138.242 111.75H133.154ZM155.714 78.054C160.194 78.054 163.49 77.19 165.602 75.462C167.714 73.734 168.77 70.918 168.77 67.014C168.77 63.174 167.81 60.358 165.89 58.566C163.97 56.774 161.058 55.878 157.154 55.878H141.89V78.054H155.714ZM219.056 113.19C213.296 113.19 208.208 112.23 203.792 110.31C199.376 108.326 195.952 105.478 193.52 101.766C191.088 98.054 189.872 93.702 189.872 88.71V50.022C189.872 48.806 190.128 47.91 190.64 47.334C191.216 46.758 192.144 46.47 193.424 46.47H198.512C199.792 46.47 200.72 46.758 201.296 47.334C201.872 47.91 202.16 48.806 202.16 50.022V88.998C202.16 93.99 203.6 97.766 206.48 100.326C209.424 102.886 213.616 104.166 219.056 104.166C224.432 104.166 228.56 102.886 231.44 100.326C234.384 97.766 235.856 93.99 235.856 88.998V50.022C235.856 48.806 236.144 47.91 236.72 47.334C237.296 46.758 238.224 46.47 239.504 46.47H244.496C246.992 46.47 248.24 47.654 248.24 50.022V88.71C248.24 93.702 246.992 98.054 244.496 101.766C242.064 105.414 238.64 108.23 234.224 110.214C229.808 112.198 224.752 113.19 219.056 113.19ZM262.622 111.75C261.342 111.75 260.414 111.462 259.838 110.886C259.326 110.31 259.07 109.446 259.07 108.294V50.022C259.07 48.806 259.326 47.91 259.838 47.334C260.414 46.758 261.374 46.47 262.718 46.47H267.902C268.926 46.47 269.694 46.598 270.206 46.854C270.782 47.11 271.23 47.622 271.55 48.39L290.942 93.03L310.334 48.39C310.654 47.622 311.07 47.11 311.582 46.854C312.158 46.598 312.958 46.47 313.982 46.47H319.166C320.51 46.47 321.438 46.758 321.95 47.334C322.526 47.91 322.814 48.806 322.814 50.022V108.294C322.814 109.446 322.526 110.31 321.95 110.886C321.438 111.462 320.542 111.75 319.262 111.75H315.038C313.758 111.75 312.83 111.462 312.254 110.886C311.678 110.31 311.39 109.446 311.39 108.294V66.918L294.974 103.494C294.462 104.518 293.95 105.254 293.438 105.702C292.926 106.15 292.094 106.374 290.942 106.374C289.79 106.374 288.926 106.15 288.35 105.702C287.838 105.254 287.358 104.518 286.91 103.494L270.494 66.918V108.294C270.494 109.446 270.206 110.31 269.63 110.886C269.118 111.462 268.19 111.75 266.846 111.75H262.622Z" fill="black"/>
<g clip-path="url(#clip0_3_31)">
<path d="M261.185 0.93575C259.685 -0.563204 241.647 7.24995 233.179 15.7194C225.645 23.2526 221.738 31.8466 223.533 36.2272C219.292 42.0637 216.271 47.7839 214.63 54.75C219.184 48.6264 221.472 42.7863 242.307 19.914C240.949 21.7456 234.601 29.0974 229.163 38.9825C233.84 38.5748 240.451 34.8918 246.401 28.9425C254.87 20.473 262.683 2.43559 261.185 0.93575Z" fill="#60A5FA"/>
</g>
<defs>
<clipPath id="clip0_3_31">
<rect width="54" height="54" fill="white" transform="translate(211 0.75)"/>
</clipPath>
</defs>
</svg>
